<svg width="20" height="25" viewBox="0 0 16 20" fill="#1C1C1C" xmlns="http://www.w3.org/2000/svg">
            <path d="M16 7.50636C16 3.36765 12.4111 0 8 0C3.58894 0 2.71698e-06 3.36765 2.71698e-06 7.50636C-0.00142154 9.13385 0.557144 10.7143 1.58553 11.9927V11.9927L7.7983 19.9116C7.80007 19.9138 7.80206 19.9157 7.80426 19.9175C7.81239 19.927 7.82121 19.9359 7.83064 19.9442L7.84511 19.9567C7.85757 19.9653 7.87066 19.9731 7.88426 19.98H7.89362C7.90681 19.9858 7.92047 19.9906 7.93447 19.9942H7.94724C7.96402 19.9977 7.98112 19.9997 7.9983 20V20C8.01548 19.9997 8.03258 19.9977 8.04936 19.9942H8.06213C8.07617 19.9907 8.08984 19.986 8.10298 19.98H8.11234C8.12594 19.9731 8.13902 19.9653 8.15149 19.9567V19.9567L8.16596 19.9442C8.17539 19.9359 8.18421 19.927 8.19234 19.9175C8.19454 19.9157 8.19653 19.9138 8.1983 19.9116L14.4111 11.9927C15.4407 10.7148 16.0005 9.13424 16 7.50636V7.50636ZM8 0.487642C12.1311 0.487642 15.4894 3.63606 15.4894 7.50636C15.4907 9.02702 14.9684 10.5037 14.0068 11.6976V11.6976L8 19.3565L1.99149 11.6992C1.03018 10.5047 0.508429 9.02739 0.510641 7.50636C0.510641 3.63606 3.86894 0.487642 8 0.487642Z" fill="inherit"/>
            <path d="M7.99855 9.83127C9.33557 9.83127 10.419 8.79097 10.419 7.50726C10.419 6.22355 9.33557 5.18408 7.99855 5.18408C6.66153 5.18408 5.57812 6.22439 5.57812 7.50726C5.57812 8.79013 6.66153 9.83127 7.99855 9.83127ZM7.99855 5.66922C8.36706 5.67694 8.72505 5.79101 9.02764 5.99715C9.33024 6.20329 9.56399 6.49232 9.69959 6.82802C9.83519 7.16372 9.8666 7.53116 9.78991 7.88428C9.71321 8.23739 9.5318 8.56048 9.26843 8.81305C9.00505 9.06561 8.67143 9.23642 8.30936 9.30406C7.9473 9.37171 7.5729 9.33317 7.2331 9.1933C6.8933 9.05342 6.60321 8.81842 6.39919 8.51775C6.19517 8.21707 6.08629 7.86411 6.08621 7.50309C6.09227 7.01176 6.29697 6.54283 6.65544 6.19907C7.0139 5.85531 7.4969 5.66477 7.99855 5.66922V5.66922Z" fill="inherit"/>
</svg>
