<svg width="32" height="32" viewBox="0 0 32 32" fill="none" xmlns="http://www.w3.org/2000/svg">
<path d="M10.2371 6.37136L6.37136 3.0783L2.79195 6.37136L6.37136 9.95078L4.9396 13.387H0V18.7562H4.9396L6.37136 21.906L2.79195 25.4855L6.80089 29.1365L10.2371 25.4855L13.387 26.9888V31.9284H18.613V26.9888L20.4027 25.8434L18.8993 24.2685L24.2685 18.7562L25.9866 20.2595L26.9888 18.7562L32 18.5414V13.387H26.9888L25.4855 9.95078L28.9933 6.37136L25.4855 3.0783L21.6913 6.37136L18.613 4.86801V0H13.387V4.86801L10.2371 6.37136Z" fill="white"/>
<circle cx="16.1792" cy="16.1074" r="8.87696" fill="#4CACE0"/>
<path d="M30.0672 26.6306C29.8525 26.3443 22.1925 18.9707 22.1925 18.9707C22.1925 18.9707 22.9937 16.5107 22.6936 14.9617C22.4034 13.4634 21.9012 12.6149 20.8323 11.5255C19.8317 10.5056 19.0901 9.9093 17.6825 9.66419C16.6027 9.47617 14.8905 9.95055 14.8905 9.95055C14.8905 9.95055 17.0382 12.3058 17.5393 12.9573C18.0404 13.6087 18.1836 13.9595 18.1836 14.6038C18.1836 15.2481 18.0617 16.2186 17.2529 16.9662C16.6005 17.5693 15.8505 18.1018 14.9621 18.1116C14.29 18.1191 13.3156 17.6105 13.3156 17.6105L10.0225 14.6038C10.0225 14.6038 9.66454 16.6083 9.80773 17.181C9.95091 17.7537 10.3089 18.9707 10.8816 19.8297C11.4543 20.6888 13.0941 22.1274 14.9621 22.5501C16.5495 22.9093 19.1142 22.1922 19.1142 22.1922C19.1142 22.1922 26.7026 29.7089 27.2037 29.8521C27.7048 29.9953 28.4174 30.1823 29.065 29.8521C29.5945 29.5822 29.8264 29.2501 30.0672 28.7067C30.3958 27.9655 30.282 26.917 30.0672 26.6306Z" fill="#E0C74C"/>
</svg>
