<svg width="34" height="34" viewBox="0 0 34 34" fill="none" xmlns="http://www.w3.org/2000/svg">
<path d="M2.13282 23.7856C2.13282 23.7856 0.0398093 15.8574 2.2744 11.0423C5.08283 4.99065 9.90603 1.87131 16.5753 1.69713C23.5246 1.51564 28.7229 4.77264 31.7257 11.0423C34.0192 15.8309 31.8673 24.2104 31.8673 24.2104" stroke="white" stroke-width="2"/>
<path d="M9.06195 23.5027C9.06195 25.4528 7.48108 27.0336 5.53097 27.0336C3.58087 27.0336 2 25.4528 2 23.5027C2 21.5526 3.58087 19.9717 5.53097 19.9717C7.48108 19.9717 9.06195 21.5526 9.06195 23.5027Z" stroke="white" stroke-width="2"/>
<path d="M31.9999 24.635C31.9999 26.5851 30.4191 28.166 28.469 28.166C26.5189 28.166 24.938 26.5851 24.938 24.635C24.938 22.6849 26.5189 21.104 28.469 21.104C30.4191 21.104 31.9999 22.6849 31.9999 24.635Z" stroke="white" stroke-width="2"/>
<path d="M18.2579 11.0425H18.9915L21.106 15.0556L18.2579 19.0687V32.5443C18.2579 32.5443 18.3011 33.9805 16.575 33.9805C14.8489 33.9805 14.8489 32.5443 14.8489 32.5443V19.0687L12.044 15.0556L14.1585 11.0425H14.8489V14.3797H18.2579V11.0425Z" fill="#E0C74C"/>
</svg>
