<svg width="35" height="32" viewBox="0 0 35 32" fill="none" xmlns="http://www.w3.org/2000/svg">
<path fill-rule="evenodd" clip-rule="evenodd" d="M10.9961 20.0889L17.315 23.9882L23.635 20.0889V16.1896L20.475 18.1386L17.315 20.0889L14.155 18.1386V14.2394L10.9961 12.2903V20.0889Z" fill="#6A6A6A"/>
<path fill-rule="evenodd" clip-rule="evenodd" d="M17.315 8.39105L10.9961 12.2903L14.155 14.2394L17.315 12.2903L20.475 14.2394L23.635 12.2903L17.315 8.39105Z" fill="#939393"/>
<path fill-rule="evenodd" clip-rule="evenodd" d="M17.3149 12.2903V16.1896L20.4749 18.1386V14.2394L17.3149 12.2903Z" fill="#F4F4F4"/>
<path fill-rule="evenodd" clip-rule="evenodd" d="M14.155 14.2394V18.1386L17.315 16.1896V12.2903L14.155 14.2394Z" fill="#DFDFDF"/>
<path fill-rule="evenodd" clip-rule="evenodd" d="M10.6091 28.3542L7.27152 22.1758L3.93388 15.9974H0L4.32082 23.9955L8.64277 31.9948L10.6091 28.3542Z" fill="#F4F4F4"/>
<path fill-rule="evenodd" clip-rule="evenodd" d="M17.2845 28.3542H10.6092L8.64282 31.9983H17.2845H25.9272L23.9609 28.3542H17.2845Z" fill="#DFDFDF"/>
<path fill-rule="evenodd" clip-rule="evenodd" d="M3.93388 15.9974L7.27152 9.81897L10.6091 3.64176L8.64277 0L4.32082 7.9993L0 15.9974H3.93388Z" fill="#DFDFDF"/>
<path fill-rule="evenodd" clip-rule="evenodd" d="M23.9609 3.64176L27.2985 9.81896L30.6361 15.9974L27.2985 22.1758L23.9609 28.3542L25.9273 31.9948L30.2492 23.9955L34.57 15.9974L30.2492 7.99929L25.9273 0H17.2845H8.64282L10.6092 3.64176H17.2845H23.9609Z" fill="#939393"/>
</svg>
