<svg width="32" height="16" viewBox="0 0 24 12" fill="white" xmlns="http://www.w3.org/2000/svg">
    <path d="M20.6648 12H7.2571C6.90402 12 6.5963 11.853 6.39012 11.5863C6.18446 11.3202 6.11024 10.9718 6.18188 10.6066L7.99934 1.28344C8.138 0.575316 8.80653 0 9.49052 0H22.8983C23.2519 0 23.5591 0.146959 23.7652 0.413662C23.9709 0.67982 24.0451 1.02817 23.9735 1.39339L22.156 10.7166C22.0179 11.4241 21.3488 12 20.6648 12ZM9.49052 0.544292C9.04621 0.544292 8.59416 0.93346 8.50396 1.39393L6.6865 10.7166C6.64733 10.9185 6.68393 11.1057 6.79011 11.2429C6.89629 11.3806 7.06175 11.4563 7.2571 11.4563H20.6648C21.1097 11.4563 21.5612 11.0676 21.6514 10.6072L23.4689 1.28398C23.508 1.08205 23.4714 0.894816 23.3653 0.757654C23.2596 0.619948 23.0936 0.544292 22.8983 0.544292H9.49052Z" fill="white"/>
    <path d="M14.9301 7.37129C14.543 7.37129 14.1554 7.21562 13.8853 6.91463L8.79117 1.2442C8.69324 1.13534 8.69685 0.962796 8.80097 0.859925C8.90354 0.757054 9.06745 0.76032 9.16487 0.870267L14.259 6.54015C14.56 6.87272 15.1095 6.92606 15.46 6.65337L22.951 0.837609C23.0649 0.74889 23.2262 0.773927 23.3112 0.895849C23.3953 1.01723 23.3705 1.18704 23.2561 1.27631L15.7646 7.09152C15.5224 7.27985 15.2265 7.37129 14.9301 7.37129Z" fill="white"/>
    <path d="M6.22598 2.03648H2.83487C2.69261 2.03648 2.57715 1.91456 2.57715 1.76433C2.57715 1.61411 2.69261 1.49219 2.83487 1.49219H6.22598C6.36825 1.49219 6.4837 1.61411 6.4837 1.76433C6.4837 1.91456 6.36825 2.03648 6.22598 2.03648Z" fill="white"/>
    <path d="M5.53897 5.66538H0.257722C0.11546 5.66538 0 5.54346 0 5.39324C0 5.24301 0.11546 5.12109 0.257722 5.12109H5.53897C5.68123 5.12109 5.79669 5.24301 5.79669 5.39324C5.79669 5.54346 5.68123 5.66538 5.53897 5.66538Z" fill="white"/>
    <path d="M4.68003 8.93101H2.10538C1.96312 8.93101 1.84766 8.80909 1.84766 8.65886C1.84766 8.50864 1.96312 8.38672 2.10538 8.38672H4.68003C4.82229 8.38672 4.93775 8.50864 4.93775 8.65886C4.93775 8.80909 4.82229 8.93101 4.68003 8.93101Z" fill="white"/>
</svg>
