<svg width="35" height="34" viewBox="0 0 35 34" fill="none" xmlns="http://www.w3.org/2000/svg">
<path fill-rule="evenodd" clip-rule="evenodd" d="M10.9968 21.5702L17.316 25.6006L23.6364 21.5702V17.5398L20.4762 19.5544L17.316 21.5702L14.1559 19.5544V15.5239L10.9968 13.5093V21.5702Z" fill="white"/>
<path fill-rule="evenodd" clip-rule="evenodd" d="M17.316 9.479L10.9968 13.5094L14.1558 15.524L17.316 13.5094L20.4761 15.524L23.6363 13.5094L17.316 9.479Z" fill="white"/>
<path fill-rule="evenodd" clip-rule="evenodd" d="M17.3159 13.5093V17.5398L20.4762 19.5544V15.5239L17.3159 13.5093Z" fill="#F2F2F2"/>
<path fill-rule="evenodd" clip-rule="evenodd" d="M14.1558 15.5239V19.5544L17.3159 17.5398V13.5093L14.1558 15.5239Z" fill="#E5E5E5"/>
<path fill-rule="evenodd" clip-rule="evenodd" d="M10.6097 30.1136L7.2719 23.7274L3.93409 17.3412H0L4.32105 25.6082L8.64323 33.8765L10.6097 30.1136Z" fill="white"/>
<path fill-rule="evenodd" clip-rule="evenodd" d="M17.2854 30.1136H10.6098L8.64331 33.8802H17.2854H25.9286L23.9621 30.1136H17.2854Z" fill="white"/>
<path fill-rule="evenodd" clip-rule="evenodd" d="M3.93409 17.3411L7.2719 10.9549L10.6097 4.57001L8.64323 0.805786L4.32105 9.07408L0 17.3411H3.93409Z" fill="white"/>
<path fill-rule="evenodd" clip-rule="evenodd" d="M23.9621 4.57001L27.2999 10.955L30.6378 17.3411L27.2999 23.7273L23.9621 30.1135L25.9286 33.8765L30.2508 25.6082L34.5718 17.3411L30.2508 9.07409L25.9286 0.805786H17.2854H8.64331L10.6098 4.57001H17.2854H23.9621Z" fill="white"/>
</svg>
