<svg width="24" height="32" viewBox="0 0 19 26" fill="white" xmlns="http://www.w3.org/2000/svg">
  <path d="M5.10746 13.1655C4.8519 12.6655 4.60727 12.1302 4.37466 11.5598L4.38683 11.5814C4.09976 10.9471 3.83669 10.2756 3.59695 9.56707C3.35742 8.85888 3.17489 8.14149 3.05009 7.41557C2.92494 6.68985 2.87258 5.96571 2.89223 5.24358C2.91188 4.52145 3.04157 3.83675 3.28154 3.18934C3.39488 2.91703 3.54112 2.64013 3.72052 2.35849C3.89987 2.07737 4.2054 1.81459 4.63771 1.57056L4.64988 1.59213L6.29029 0.666139C6.3713 0.620411 6.47377 0.605228 6.59823 0.620298C6.72243 0.635515 6.84152 0.672819 6.95493 0.731804C7.06855 0.791157 7.1759 0.863047 7.27728 0.948027C7.37866 1.03301 7.44969 1.11154 7.49022 1.18334L10.1444 5.88534C10.1931 5.97161 10.2258 6.07678 10.242 6.20003C10.2583 6.32364 10.2556 6.45319 10.2342 6.58838C10.2127 6.72399 10.1797 6.84667 10.1352 6.9571C10.0907 7.06754 10.028 7.14562 9.94697 7.19134L8.02303 8.27738L7.87729 8.44497C7.82082 8.62878 7.81759 8.84404 7.8677 9.09032C7.91777 9.33711 7.9897 9.59028 8.08312 9.85041C8.17655 10.1105 8.28538 10.3668 8.40999 10.6187C8.53449 10.871 8.64541 11.0831 8.74282 11.2556L9.94822 13.391C9.97257 13.4342 10.0401 13.5382 10.1511 13.7031C10.2618 13.8681 10.3885 14.0527 10.5305 14.2569C10.6725 14.4611 10.8157 14.6602 10.9605 14.8531C11.1052 15.0466 11.2207 15.204 11.3073 15.3256C11.4886 15.5838 11.665 15.8019 11.8367 15.9796C12.0084 16.1579 12.2089 16.2296 12.4387 16.1944C12.4738 16.1937 12.498 16.1893 12.5116 16.1816C12.5248 16.1741 12.5493 16.1701 12.5845 16.1689L14.4477 15.1171C14.6229 15.0182 14.8448 15.0401 15.1123 15.1828C15.38 15.3258 15.5624 15.4834 15.6598 15.656L18.2409 20.2285C18.2817 20.3007 18.312 20.4017 18.3324 20.5325C18.3528 20.6632 18.3521 20.7964 18.3307 20.9315C18.3092 21.0672 18.2762 21.1898 18.2317 21.3003C18.1872 21.4106 18.1245 21.4888 18.0435 21.5345L16.4233 22.449L16.4355 22.4706C16.0032 22.7146 15.6193 22.846 15.2829 22.8652C14.9467 22.8845 14.6176 22.8618 14.2962 22.7967L14.3164 22.7852C13.441 22.6537 12.5848 22.2885 11.7484 21.6894C10.9117 21.0906 10.1311 20.3936 9.40636 19.5984C8.6816 18.8037 8.02225 17.967 7.42872 17.0884C6.83505 16.2104 6.3353 15.4116 5.9293 14.6924C5.63715 14.1748 5.36324 13.6659 5.10746 13.1655ZM7.75269 16.8345C8.32747 17.6952 8.9623 18.5123 9.65734 19.2861C10.3521 20.06 11.0978 20.7342 11.8939 21.3085C12.6897 21.8832 13.5042 22.2297 14.3364 22.3475C14.6147 22.3992 14.8775 22.4308 15.1246 22.4428C15.3719 22.4551 15.61 22.3963 15.8397 22.2667L12.6741 16.6588C12.6661 16.6447 12.6417 16.6487 12.6012 16.6715C12.2311 16.7099 11.9237 16.6229 11.679 16.4099C11.4343 16.1974 11.193 15.9118 10.955 15.553C10.8683 15.4312 10.7507 15.2701 10.602 15.0696C10.4531 14.8693 10.3079 14.6668 10.1659 14.4626C10.0239 14.2583 9.89724 14.0738 9.78651 13.9088C9.67552 13.7439 9.60798 13.6398 9.58363 13.5967L9.52276 13.4889L9.19402 12.9065L9.06009 12.6692L8.96269 12.4967L8.81659 12.2379L8.52438 11.7202L8.41481 11.5261L8.37828 11.4614C8.27292 11.2747 8.15174 11.0445 8.01501 10.7705C7.87823 10.4971 7.76196 10.2121 7.66579 9.91534C7.56951 9.61903 7.49509 9.32909 7.44217 9.04611C7.38925 8.76312 7.39626 8.50806 7.46381 8.28019C7.47455 8.23633 7.56354 8.11013 7.73094 7.90187L4.5045 2.18614C4.30198 2.30046 4.14069 2.47246 4.02068 2.701C3.90045 2.93016 3.78924 3.15873 3.68695 3.38712C3.46584 4.00528 3.34426 4.65684 3.32186 5.34236C3.29936 6.0283 3.3514 6.71932 3.47761 7.416C3.60382 8.11267 3.78399 8.80284 4.01832 9.48564C4.25255 10.1689 4.50503 10.8135 4.77572 11.4188C5.00841 11.9891 5.24875 12.5169 5.49635 13.0029C5.7439 13.4887 6.00985 13.9835 6.29384 14.4866C6.69172 15.1915 7.17781 15.9741 7.75269 16.8345ZM4.94197 1.96764L8.15624 7.6618L9.71564 6.78154C9.79665 6.73581 9.83975 6.63102 9.84505 6.46673C9.85016 6.30293 9.82859 6.17739 9.77989 6.09111L7.12569 1.38912C7.07698 1.30284 6.98431 1.21793 6.84788 1.13353C6.71132 1.04969 6.60263 1.03022 6.52162 1.07595L4.94197 1.96764ZM13.0994 16.4187L16.2528 22.005L17.8122 21.1248C17.8932 21.079 17.9342 20.9705 17.9355 20.7992C17.9365 20.628 17.9172 20.5065 17.8764 20.4344L15.2953 15.8619C15.2386 15.7614 15.1417 15.6689 15.0054 15.5847C14.8688 15.5009 14.7601 15.4814 14.6791 15.5271L13.0994 16.4187Z" fill="white"/>
</svg>
